<?xml version="1.0" encoding="utf-8"?>
<!-- Generator: Adobe Illustrator 23.1.0, SVG Export Plug-In . SVG Version: 6.00 Build 0)  -->
<svg version="1.1" id="Layer_1" xmlns="http://www.w3.org/2000/svg" xmlns:xlink="http://www.w3.org/1999/xlink" x="0px" y="0px"
	 viewBox="0 0 500 500" style="enable-background:new 0 0 500 500;" xml:space="preserve">
<style type="text/css">
	.st0{fill:none;stroke:#263238;stroke-width:1.1031;stroke-linecap:round;stroke-linejoin:round;stroke-dasharray:4.4124;}
	.st1{fill:none;stroke:#263238;stroke-width:1.1031;stroke-linecap:round;stroke-linejoin:round;}
	.st2{fill:#263238;}
	.st3{opacity:0.2;fill:#FFFFFF;enable-background:new    ;}
	.st4{fill:#22C55E;stroke:#263238;stroke-width:1.1031;stroke-miterlimit:10;}
	.st5{fill:none;stroke:#263238;stroke-width:1.1031;stroke-miterlimit:10;}
	.st6{fill:#92E3A9;stroke:#263238;stroke-width:1.1031;stroke-miterlimit:10;}
	.st7{opacity:0.2;enable-background:new    ;}
	.st8{fill:#22C55E;}
	.st9{fill:#FFFFFF;stroke:#222221;stroke-width:1.1031;stroke-miterlimit:10;}
	.st10{fill:#FFFFFF;stroke:#263238;stroke-width:1.1031;stroke-linecap:round;stroke-linejoin:round;}
	.st11{fill:#FFFFFF;}
	.st12{opacity:0.5;fill:#FFFFFF;enable-background:new    ;}
	.st13{fill:none;stroke:#263238;stroke-width:2.2062;stroke-linecap:round;stroke-linejoin:round;}
	
		.st14{opacity:0.2;fill:none;stroke:#FFFFFF;stroke-width:1.1031;stroke-linecap:round;stroke-linejoin:round;enable-background:new    ;}
	.st15{fill:none;stroke:#FFFFFF;stroke-width:1.1031;stroke-linecap:round;stroke-linejoin:round;}
</style>
<g id="freepik--Lines--inject-12">
	<path class="st0" d="M87.5,200.3h-5.4c-12.1,0-21.9,9.8-21.9,21.9v120.3c0,12.1,9.8,21.9,21.9,21.9h74.4c12.1,0,21.9-9.8,21.9-21.9
		l0,0"/>
	<path class="st0" d="M172.3,86.8V63c0-7.4,6-13.4,13.4-13.4h96.7c7.4,0,13.4,6,13.4,13.4l0,0"/>
</g>
<g id="freepik--Window--inject-12">
	<path class="st1" d="M439.9,118.7v180.1c0,12.3-9.9,22.2-22.2,22.2H101c-12.3,0-22.2-9.9-22.2-22.2V118.7c0-0.5,0-1,0.1-1.6
		c0.8-11.6,10.5-20.6,22.1-20.6h316.7c11.7,0,21.3,9,22.1,20.7C439.9,117.6,439.9,118.2,439.9,118.7z"/>
	<path class="st2" d="M89.6,125.4h340.6l0,0v166.3c0,11.5-9.3,20.8-20.8,20.8h-299c-11.5,0-20.8-9.3-20.8-20.8L89.6,125.4
		L89.6,125.4L89.6,125.4z"/>
	<path class="st3" d="M430.2,125.4v166.3c0.1,11.4-9.1,20.7-20.6,20.8H110.2c-11.4-0.1-20.6-9.4-20.6-20.8V125.4H430.2z"/>
	<path class="st4" d="M439.8,117.2H78.9c0.8-11.6,10.5-20.6,22.1-20.6h316.7C429.3,96.5,439,105.5,439.8,117.2z"/>
	<path class="st2" d="M123.2,106.8c0,2.2-1.8,3.9-3.9,3.9c-2.1,0-3.9-1.8-3.9-3.9s1.8-3.9,3.9-3.9
		C121.4,102.9,123.2,104.6,123.2,106.8L123.2,106.8z"/>
	<path class="st2" d="M139.8,106.8c0,2.2-1.8,3.9-3.9,3.9c-2.2,0-3.9-1.8-3.9-3.9s1.8-3.9,3.9-3.9
		C138.1,102.9,139.8,104.6,139.8,106.8L139.8,106.8z"/>
	<circle class="st2" cx="152.4" cy="106.8" r="3.9"/>
	<path class="st5" d="M430.2,125.4v166.3c0,11.5-9.3,20.8-20.8,20.8h-299c-9.9,0-18.5-7-20.4-16.8v-0.1c-0.3-1.3-0.4-2.7-0.4-4
		V125.4H430.2z"/>
	<path class="st2" d="M429.9,151.2c-1.5-0.8-3-1.5-4.6-1.9l-1.9-8.4h-7.9l-1.9,8.4c-1.6,0.4-3.2,1.1-4.6,1.9l-7.2-4.6l-5.6,5.6
		l4.5,7.2c-0.8,1.5-1.5,3-1.9,4.6l-8.4,1.9v7.9l8.4,1.9c0.4,1.6,1.1,3.2,1.9,4.7l-4.6,7.2l5.6,5.6l7.2-4.6c1.5,0.8,3,1.5,4.6,1.9
		l1.9,8.3h7.9l1.9-8.3c1.6-0.5,3.2-1.1,4.6-1.9l0.4,0.2V151L429.9,151.2z M419.4,180.2c-5.7,0-10.3-4.6-10.3-10.3
		s4.6-10.3,10.3-10.3c5.7,0,10.3,4.6,10.3,10.3l0,0C429.7,175.6,425.1,180.2,419.4,180.2C419.5,180.2,419.4,180.2,419.4,180.2z"/>
	<path class="st2" d="M286.8,159.2v-16.7l-17.6-3.9c-0.9-3.4-2.3-6.7-4-9.8l2.1-3.4h-83.1l2.1,3.3c-1.7,3.1-3.1,6.4-4,9.8l-17.6,3.9
		v16.8l17.6,3.9c0.9,3.4,2.3,6.7,4,9.8l-9.7,15.2l11.9,11.8l15.2-9.7c3.1,1.7,6.4,3.1,9.8,4.1l3.9,17.6h16.7l3.9-17.6
		c3.4-1,6.7-2.3,9.7-4.1l15.2,9.7l11.8-11.8l-9.6-15.2c1.7-3.1,3-6.4,4-9.8L286.8,159.2z M225.8,172.5c-11.9,0-21.6-9.7-21.6-21.6
		s9.7-21.6,21.6-21.6c11.9,0,21.6,9.7,21.6,21.6S237.7,172.5,225.8,172.5L225.8,172.5L225.8,172.5z"/>
	<path class="st2" d="M175.7,274.2l0.7-13.3l-13.8-3.9c-0.6-2.7-1.6-5.4-2.8-7.9l8.3-11.7l-8.9-9.9l-12.5,7
		c-2.4-1.5-4.9-2.7-7.6-3.6l-2.4-14.1l-13.3-0.6l-3.8,13.8c-2.7,0.6-5.4,1.6-7.9,2.8l-11.6-8.3l-9.9,8.9l7.1,12.5
		c-1.5,2.4-2.7,4.9-3.6,7.6l-4,0.7v18l2.9,0.8c0.6,2.7,1.5,5.4,2.8,7.9l-5.7,8l0.4,6.9v0.1l5.9,6.6l12.5-7c2.4,1.5,4.9,2.8,7.6,3.7
		l2.3,13.6l0,0l0.1,0.6l13.3,0.7l0.3-1.3l0,0l3.5-12.5c2.7-0.6,5.4-1.6,7.9-2.8l11.6,8.3l9.9-8.9l-7-12.5c1.5-2.4,2.7-4.9,3.6-7.6
		L175.7,274.2z M140.4,253.4c-6.4-7.1-17.2-7.6-24.3-1.3c-7.1,6.4-7.6,17.2-1.3,24.3c6.4,7.1,17.2,7.6,24.3,1.3l0,0
		C146.2,271.3,146.8,260.5,140.4,253.4L140.4,253.4z"/>
	<path class="st2" d="M281.9,254.3c0.5-2.1,0.8-4.2,0.8-6.3l9.5-5l-2.6-9.7l-10.8,0.5c-1.1-1.8-2.4-3.5-3.9-5l3.2-10.3l-8.7-5
		l-7.3,7.9c-2.1-0.5-4.2-0.8-6.3-0.8l-5-9.6l-9.7,2.6l0.5,10.8c-1.8,1.1-3.5,2.4-5,3.9l-10.3-3.2l-5,8.7l8,7.3
		c-0.5,2.1-0.8,4.2-0.8,6.3l-9.6,5l2.6,9.7l10.8-0.5c1.1,1.8,2.4,3.5,3.9,5l-3.2,10.3l8.7,5l7.2-7.9c2.1,0.5,4.2,0.8,6.3,0.8l5,9.6
		l9.7-2.6l-0.4-9.2l-0.1-1.6c1.8-1.1,3.5-2.4,5.1-3.9l10.3,3.2l4.3-7.4l0.7-1.3L281.9,254.3z M259.1,260.2c-6.9,1.9-14.1-2.2-16-9.1
		s2.2-14.1,9.1-16s14.1,2.2,16,9.1v0.1C270,251.2,266,258.3,259.1,260.2L259.1,260.2z"/>
	<path class="st2" d="M392.7,271.4l2.2-13.3l-13.5-5.4c-0.3-2.8-1-5.6-1.9-8.3l9.7-10.8l-7.8-11l-13.4,5.7c-2.2-1.8-4.6-3.3-7.2-4.5
		l-0.8-14.5l-13.3-2.2l-5.5,13.4c-2.8,0.3-5.6,1-8.3,1.9l-10.8-9.7l-11,7.8l5.7,13.4c-1.6,2-2.9,4.1-4,6.3c-0.1,0.3-0.3,0.6-0.5,0.9
		l-14.5,0.8l-2.2,13.3l2.2,0.9l11.3,4.5c0.3,2.8,1,5.6,1.9,8.3l-9.7,10.9l7.9,11l13.4-5.7c2.2,1.8,4.6,3.3,7.2,4.5l0.8,14.4
		l13.3,2.2l5.4-13.3c2.8-0.3,5.6-1,8.3-1.9l10.8,9.7l11-7.9l-5.7-13.4c1.8-2.2,3.3-4.7,4.5-7.3L392.7,271.4z M355.4,270.8
		c-7.8,5.6-18.7,3.8-24.3-4c-5.6-7.8-3.8-18.7,4-24.3c7.8-5.6,18.7-3.8,24.3,4l0,0C365,254.3,363.2,265.2,355.4,270.8L355.4,270.8z"
		/>
</g>
<g id="freepik--Graphics--inject-12">
	<path class="st6" d="M107.8,172.9h104.6c7.2,0,13.1,5.9,13.1,13.1v144.8c0,7.2-5.9,13.1-13.1,13.1H107.8c-7.2,0-13.1-5.9-13.1-13.1
		V186C94.7,178.8,100.6,172.9,107.8,172.9z"/>
	<path class="st7" d="M107.8,172.9h104.6c7.2,0,13.1,5.9,13.1,13.1v144.8c0,7.2-5.9,13.1-13.1,13.1H107.8c-7.2,0-13.1-5.9-13.1-13.1
		V186C94.7,178.8,100.6,172.9,107.8,172.9z"/>
	<path class="st1" d="M237.7,199v144.8c0,7.2-5.9,13.1-13.1,13.1l0,0H120c-7.2,0-13.1-5.9-13.1-13.1l0,0V199
		c0-7.2,5.9-13.1,13.1-13.1h104.6C231.8,185.8,237.7,191.7,237.7,199L237.7,199z"/>
	<path class="st4" d="M237.7,199v7.8H106.9V199c0-7.2,5.9-13.1,13.1-13.1h104.6C231.8,185.8,237.7,191.7,237.7,199L237.7,199z"/>
	<rect x="119.2" y="215.7" class="st8" width="32.2" height="5.4"/>
	<rect x="119.2" y="264.1" class="st8" width="32.2" height="5.4"/>
	<rect x="119.2" y="308" class="st8" width="32.2" height="5.4"/>
	<rect x="119.2" y="229.1" class="st2" width="91.4" height="4"/>
	<rect x="119.2" y="236.6" class="st2" width="74.9" height="3.9"/>
	<rect x="119.2" y="244.1" class="st2" width="84.7" height="3.9"/>
	<rect x="119.2" y="251.5" class="st2" width="84.7" height="3.9"/>
	<rect x="119.2" y="272.9" class="st2" width="91.4" height="4"/>
	<rect x="119.2" y="280.5" class="st2" width="74.9" height="3.9"/>
	<rect x="119.2" y="288" class="st2" width="84.7" height="3.9"/>
	<rect x="119.2" y="321.1" class="st2" width="91.4" height="4"/>
	<rect x="119.2" y="328.7" class="st2" width="74.9" height="3.9"/>
	<rect x="119.2" y="336.1" class="st2" width="84.7" height="3.9"/>
	<path class="st9" d="M385.1,85.4v58.5c0,8.6-7,15.6-15.6,15.6l0,0H234.7c-8.6,0-15.6-7-15.6-15.6l0,0V85.4c0-8.6,7-15.6,15.6-15.6
		h134.8C378.1,69.8,385.1,76.8,385.1,85.4z"/>
	<path class="st4" d="M385.1,85.4v1.3H218.9v-1.3c0-8.6,7-15.6,15.6-15.6h134.8C378.1,69.8,385.1,76.8,385.1,85.4z"/>
	<path class="st2" d="M243.4,81.1c-0.9,0.9-2.5,0.9-3.4,0s-0.9-2.5,0-3.4s2.5-0.9,3.4,0l0,0C244.4,78.6,244.4,80.2,243.4,81.1z"/>
	<path class="st2" d="M254.6,81.1c-0.9,0.9-2.5,0.9-3.4,0s-0.9-2.5,0-3.4s2.5-0.9,3.4,0l0,0C255.4,78.6,255.4,80.2,254.6,81.1z"/>
	<path class="st2" d="M265.7,81.1c-0.9,0.9-2.5,0.9-3.4,0s-0.9-2.5,0-3.4s2.5-0.9,3.4,0l0,0C266.6,78.6,266.6,80.2,265.7,81.1z"/>
	<rect x="229.6" y="97.5" class="st0" width="54.3" height="46.9"/>
	<rect x="292.3" y="97.5" class="st2" width="62.5" height="3.3"/>
	<rect x="292.3" y="104.4" class="st2" width="47.9" height="3.3"/>
	<rect x="292.3" y="111.2" class="st2" width="71.4" height="3.3"/>
	<rect x="292.3" y="117.8" class="st2" width="60.8" height="3.3"/>
	<path class="st10" d="M359.1,230.7h30.6c3.6,0,6.5,2.9,6.5,6.5v17.9c0,3.6-2.9,6.5-6.5,6.5h-30.6c-3.6,0-6.5-2.9-6.5-6.5v-17.9
		C352.6,233.6,355.5,230.7,359.1,230.7z"/>
	<polyline class="st1" points="366.6,240 358.2,245.3 366,252.2 	"/>
	<polyline class="st1" points="381.9,252.7 389.5,246.2 380.8,240.5 	"/>
	<line class="st1" x1="370.7" y1="256.6" x2="376.9" y2="237.2"/>
</g>
<g id="freepik--Character--inject-12">
	<path class="st8" d="M306.2,425.6c0,0-29,8.3-33,9.8c-3.7,1.3-13.7,4.8-21.1,3.7c-0.7-0.1-1.4-0.3-2.1-0.5c-7.6-2.3-11-4.4-12-9.1
		s2.8-8.3,6.4-10.5s23.4-4.6,23.4-4.6l4.8,1.4l0,0L306.2,425.6z"/>
	<path class="st11" d="M251.9,439.1c-0.7-0.1-1.4-0.3-2.1-0.5c-7.6-2.3-11-4.4-12-9.1s2.8-8.3,6.4-10.5s23.4-4.6,23.4-4.6l4.8,1.4
		c-4.3,2-20.4,3.1-23.9,5.1s-5.2,5.8-3.1,11C246.4,434.6,249.4,437.2,251.9,439.1z"/>
	<path class="st1" d="M301.8,426.8c0,0-21.8,5.6-30.4,9.3s-25.1,5.2-31-2.3s-0.7-13.9,5.2-15.3s17.7-3.7,24.2-2.8"/>
	<path class="st1" d="M252.4,438.7c0,0-11.1-6.1-7.4-14.6c2.7-6.3,17.5-4.9,24.8-8.4"/>
	<path class="st8" d="M394.5,440.4c-0.3,3-1.4,5.8-4.4,7.6c-2,1.2-4.8,1.9-8.9,1.8c-10.2-0.1-29.3-7.4-29.3-7.4l-17.9-9.9l9.3-14.7
		l2.5-4l6.6,1.5c0,0,5.5,3.1,10.9,5.5s18.8,3,23.5,6.8S395,435.5,394.5,440.4z"/>
	<path class="st11" d="M394.5,440.4c-0.3,3-1.4,5.8-4.4,7.6c0.9-2.9,0.7-6.1-0.5-8.9c-2-4.5-8.5-8.5-17.1-9.1s-15.1-4.7-18.5-6.5
		c-2.7-1.4-8.3-4.4-10.7-5.7l2.5-4l6.6,1.5c0,0,5.5,3.1,10.9,5.5s18.8,3,23.5,6.8S395,435.5,394.5,440.4z"/>
	<path class="st1" d="M338,435.3c12.9,7.5,27.1,12.4,41.9,14.3c3.3,0.4,7,0.5,9.2-2c1.2-1.4,1.7-3.3,1.5-5.1
		c-0.4-4.6-4.3-8.2-8.5-10.1s-8.9-2.3-13.4-3.3s-8.8-2.6-12.9-4.7c-3.2-1.7-6.4-3.7-9.9-4.5s-7.8,0.2-9.7,3.3"/>
	<path class="st1" d="M388,448.9c3.4-1.6,5.8-4.8,6.5-8.5c0.6-4.3-1.8-8.7-5.3-11.4s-7.8-3.9-12.1-4.8s-8.7-1.5-12.8-3.1
		c-6.3-2.5-12.5-7.3-19-5.6"/>
	<path class="st8" d="M358.2,280.4l-30.3-11.5l-0.4-0.1c0,0,0.1-0.8,0.2-2c0.2-2.4,0.3-6.4-0.9-7.7c-1.7-2-6.5-0.3-11.1-2.5
		s-13.3,1.7-13.3,1.7s-6.2-1.1-9,3.4c-1.4,3.6-0.9,9-0.9,9l-0.6,0.2c-3.6,1.4-23.3,8.7-27.4,11.7c-4.6,3.3-9.7,36.6-11.3,46.4
		s-4.5,18.6-3.1,22s22.6,19.6,34.7,23.8s55.2,3,55.2,3s0.7-0.2,2-0.6c7.3-2.3,33.1-12,46.8-34.7C388.9,342.5,375.6,299,358.2,280.4z
		 M276.4,336.5c-2.2,1.6-1,7.7-1,7.7l-3.8-3.3l9.5-23.4l4.1,18C285.2,335.5,278.6,335,276.4,336.5z M352.6,351.4
		c-1,0.5,3-10.7,1.1-13.3s-7.7-2.3-7.7-2.3l0.5-3.1l3.4-17.6l1.1-1.4c0,0,11.8,20.2,13.9,27.3C364.9,341.2,352,351.4,352.6,351.4z"
		/>
	<path class="st11" d="M301.1,207.4L285.5,224c0,0-2.1,1.9-1.3,6.7s2.9,9,4.4,9.3c1.2,0.2,2.4,0.3,3.6,0.3c0,0,3.4,7.3,5.7,10.1
		c0,0,0.8,11.2,0.4,14.3c0,0,5.6,4.9,10.9,5.5s13.5-7.5,13.5-7.5l2-9.9c0,0,4.8-7.3,5.1-9.2s2.5-1.4,3.6-2.4s3.6-5.2,4-9.3
		s0.4-8.7-4.3-7.3c-4.1-1.1-1.5-9.7-1.5-9.7l-7.1-6.3L301.1,207.4z"/>
	<path class="st12" d="M328,268.9c-0.2,0.6-0.5,1.2-0.8,1.8c-2.6,4.9-13.8,14.1-13.8,14.1l-3.4-10.5l-1.9,10.5
		c-3.8-1.6-15.2-11.5-15.2-11.5s-0.4-0.9-0.9-2.4l0.6-0.2c0,0-0.5-5.4,0.9-9c2.7-4.5,9-3.4,9-3.4s8.6-3.8,13.3-1.7s9.5,0.5,11.1,2.5
		s0.6,9.7,0.6,9.7L328,268.9z"/>
	<path class="st7" d="M358.2,280.4l-30.3-11.5l-0.4-0.1c0,0,0.1-0.8,0.2-2l-0.6,3.9l-4.5,6.1c4.8,1.8,9.5,3.8,14,6.2
		c4.4,2.4,7,7.2,6.4,12.2l-5.6,47.8l-2.3,27.1l6.9,7.2c7.3-2.3,33.1-12,46.8-34.7C388.9,342.5,375.6,299,358.2,280.4z M352.6,351.4
		c-1,0.5,3-10.7,1.1-13.3s-7.7-2.3-7.7-2.3l0.5-3.1l3.4-17.6l1.1-1.4c0,0,11.8,20.2,13.9,27.3C364.9,341.2,352,351.4,352.6,351.4z"
		/>
	<path class="st7" d="M287.2,338.2l-4.7-15.7c0,0-8.5-28.8-14.2-35.9l1.5,20.3c0,0-5,24.2-9.6,31.4c-4.6,7.2-5.6,9,0,9
		c5.6,0,19.2,10.8,19.2,10.8l-1-9L287.2,338.2z M275.3,344.2l-3.8-3.3l9.5-23.4l4.1,18c0,0-6.5-0.5-8.8,1.1S275.3,344.2,275.3,344.2
		z"/>
	<path class="st1" d="M297.8,250.4c0,0,0.9,8.5,0,12.4"/>
	<path class="st1" d="M323.4,261.7c0-2.7,0.3-5.5,0.9-8.1"/>
	<path class="st1" d="M325.7,213.7c0,0,5.1,6.4,4.9,11.3s-0.6,10.7-0.5,16.3s-9.1,17.5-13.8,18.6s-8.8,1.3-11.9-1.7
		s-6.1-7.2-10-12.6s-3-17.3-3-17.3"/>
	<path class="st1" d="M313.3,232.9c-0.3,1.8-0.4,3.6-0.4,5.4c-0.1,1.5,0.4,3,1.3,4.2c0.6,0.6,1.4,1,1.5,1.9c0,0.7-0.4,1.4-1.1,1.8
		c-0.6,0.3-1.3,0.7-1.9,1.1"/>
	<path class="st1" d="M305.2,247.8c0,0,0.6,3.8,5.7,4.6"/>
	<path class="st2" d="M305.7,235.8c0,1.1-0.5,2-1.1,2s-1.1-0.9-1.1-2s0.5-2,1.1-2S305.7,234.7,305.7,235.8z"/>
	<path class="st2" d="M321,236.3c0,1.1-0.5,2-1.1,2s-1.1-0.9-1.1-2s0.5-2,1.1-2S321,235.2,321,236.3z"/>
	<path class="st13" d="M318,231.4c0,0,5-5,9.2,0.6"/>
	<path class="st13" d="M307.4,231.5c0,0-3.2-3.5-8.1,0"/>
	<path class="st2" d="M298.2,255.2c0,0,3,8.4,9.9,10.8s15.9-10,15.9-10l-0.5-1.6c0,0-5.9,7.7-12.5,6.4s-13.1-10.3-13.1-10.3
		L298.2,255.2z"/>
	<path class="st1" d="M292.1,240c0,0-4.1,1.4-5.1-1.7s-4.8-11.5-1.5-14.3s5.8,3.7,5.8,3.7"/>
	<path class="st1" d="M330.1,241.7c0,0,3.8,0.8,4.9-2.4s4.8-11.5,1.5-14.3s-5.8,3.7-5.8,3.7"/>
	<path class="st2" d="M291.3,235.8c1.4-0.2,2.7-1,3.6-2.1c0.5-1,0.9-2.1,1-3.2c0.4-2.1,0.6-4.3,0.6-6.4c0-0.8,0-1.7,0.2-2.5
		c0.3-0.8,0.8-1.6,1.4-2.2c1.4-1.7,3.1-3.1,4.5-4.8c1.5-1.6,2.2-3.8,2-6c6.3,5.2,14.5,7.3,22.5,5.8c7.1-1.4,14-7.7,13.2-15.6
		c-0.3-2.7-2.3-4.9-5-5.5c-3.5-0.9-6.7,1-9.9,2.2c-5.8,2.2-11.5-1.6-17.4-2.2c-5-0.6-11.2,0.1-13.9,5.1c0,0-9,1.1-13,8.5
		s3.6,17.7,3.6,17.7s3-3.7,6.9,3.8L291.3,235.8z"/>
	<path class="st2" d="M326.3,211.8c0,0-2.3,12.2,3.8,18.1c0,0,1.3-3.7,2.7-4.6c2-4.4,1.6-9.5-1.1-13.5
		C327.2,204.7,326.3,211.8,326.3,211.8z"/>
	<path class="st14" d="M337.5,198c-1.1,3.4-3.7,6.1-7,7.3c-8.5,3.5-16.7-0.4-25.2-1.1c-6.9-0.6-14.6,5.6-15.1,12.8"/>
	<path class="st14" d="M285,215c0.2-5.7,3.7-10.8,9-13.1"/>
	<path class="st1" d="M295.9,261.7c3.7,3.9,8.2,7,13.2,9c0,0,10.1-3,15.3-10"/>
	<circle class="st1" cx="302.5" cy="235.8" r="9"/>
	<circle class="st1" cx="322.5" cy="235.8" r="9"/>
	<path class="st1" d="M297.8,258.3c-1.8,0.5-3.4,1.7-4.3,3.4c-1.6,2.8-0.6,11.6-0.6,11.6s8.2,8.1,15.2,11.5l2-11.6l3.2,11.6
		c0,0,10.8-7.6,13.8-14.1c0,0,1-7.5,0-10c-0.5-1.4-1.8-2.3-3.2-2.4"/>
	<path class="st1" d="M285,335.9c0,0-3.2-21.5-7.5-30.3"/>
	<path class="st1" d="M268.3,286.5c2.5,3.5,4.7,7.2,6.6,11.1"/>
	<path class="st1" d="M352.6,302.6c0.9-3.6,2-7.1,3.5-10.5"/>
	<path class="st1" d="M345.9,335.9c0,0,2.3-14.7,5.1-26.9"/>
	<path class="st1" d="M349.9,315.2c2.2-3,5.4-5.1,8.9-6.1"/>
	<path class="st1" d="M327.6,268.7c0,0,18.6,7.5,30.7,11.7c0,0,14.8,13.9,30.7,62.1c0,0-14.5,24.5-42.2,32.3"/>
	<path class="st1" d="M351.5,352.3l13.4-11.1c0,0,7.1-5.4,14.4-1.7"/>
	<path class="st1" d="M351,313.8c0,0,11,16.3,13.9,27.3"/>
	<path class="st1" d="M275.5,344.9l-3.9-3.7c0,0-5.8-1-12.4,3.4"/>
	<path class="st1" d="M271.6,341.2c0,0,4.9-16,9.6-24.2"/>
	<path class="st1" d="M292.6,270.7c0,0-26.8,10.1-29.4,13s-12.6,59.2-12.9,65.6c-0.2,5.8,20.6,18.7,31,24.1"/>
	<path class="st2" d="M312.6,289.7c0,1-0.8,1.8-1.8,1.8s-1.8-0.8-1.8-1.8s0.8-1.8,1.8-1.8l0,0C311.8,287.9,312.6,288.7,312.6,289.7
		L312.6,289.7z"/>
	<path class="st2" d="M343.7,383.9h-61c-0.8,0-1.4-0.6-1.4-1.4l0,0c0-0.8,0.6-1.4,1.4-1.4h61c0.8,0,1.4,0.6,1.4,1.4l0,0
		C345.1,383.3,344.4,383.9,343.7,383.9z"/>
	<path class="st10" d="M345.8,379.2l8.2-38.4c0.5-2.2-0.9-4.4-3.1-4.8c-0.3-0.1-0.6-0.1-0.9-0.1h-71.3c-2.3,0-4.1,1.8-4.1,4.1
		c0,0.3,0,0.5,0.1,0.8l7.3,37.1c0.4,1.9,2,3.2,3.9,3.3l55.8,1.3C343.7,382.4,345.4,381.1,345.8,379.2z"/>
	<path class="st2" d="M319.8,358c0,3.1-2.6,5.7-5.7,5.7s-5.7-2.6-5.7-5.7s2.6-5.7,5.7-5.7C317.2,352.3,319.8,354.8,319.8,358
		L319.8,358z"/>
	<line class="st1" x1="331" y1="339.5" x2="339.4" y2="339.5"/>
	<line class="st1" x1="290.5" y1="339.5" x2="322.7" y2="339.5"/>
	<path class="st2" d="M345.9,419.9l-6.5,17.1c0,0-16.6-4.2-37.8-8.5c-22.2-4.5-45.4-10.4-57.4-31.5c-1.5-2.6-2.4-5.6-1.8-8.5
		c1.7-7.3,11.2-9.3,17.5-10c3.9-0.4,7.9-0.6,11.8-0.7c2,0,8.6-1.1,10.3,0.1c2.4,1.8,5,3.3,7.7,4.6c3.5,1.5,55.4-1.4,55.4-1.4
		c0.9-2,1.5-4.1,1.6-6.2c8.1-4.1,27-7.6,35-6.1c12.5,2.4,19.8,9.7,18.5,17.4S371.1,414.4,345.9,419.9z"/>
	<path class="st15" d="M345.9,419.9c0,0-15.8-4.2-28.6-12.9s-22.9-18.8-40.9-16.7"/>
	<path class="st15" d="M314.3,405c8.1-2.3,14.1-7.6,20.6-12.7c6.9-5.5,14.3-10.4,22.1-14.5"/>
	<line class="st1" x1="311.5" y1="237.2" x2="313.9" y2="237.2"/>
</g>
</svg>