<?xml version="1.0" standalone="no"?>
<!DOCTYPE svg PUBLIC "-//W3C//DTD SVG 20010904//EN"
 "http://www.w3.org/TR/2001/REC-SVG-20010904/DTD/svg10.dtd">
<svg version="1.0" xmlns="http://www.w3.org/2000/svg"
 width="264.000000pt" height="191.000000pt" viewBox="0 0 264.000000 191.000000"
 preserveAspectRatio="xMidYMid meet">

<g transform="translate(0.000000,191.000000) scale(0.100000,-0.100000)"
fill="#000000" stroke="none">
<path d="M1170 1860 c-315 -68 -576 -307 -674 -617 -91 -292 -32 -601 161
-843 261 -326 729 -432 1108 -251 171 82 303 201 398 358 148 247 167 575 47
839 -92 204 -281 384 -490 470 -155 63 -377 81 -550 44z m274 -100 l41 0 -33
-26 c-34 -27 -36 -37 -15 -90 5 -15 0 -13 -27 8 l-33 26 -29 -21 c-34 -25 -42
-19 -28 19 10 26 8 31 -22 56 l-33 27 45 3 c41 3 45 5 54 38 l10 35 14 -38
c14 -34 18 -37 56 -37z m-279 -60 c21 -57 29 -87 22 -92 -16 -10 -25 -1 -32
32 -8 35 -17 43 -40 34 -17 -7 -17 -17 0 -71 5 -17 3 -23 -7 -23 -13 0 -78
143 -78 171 0 24 30 5 40 -26 10 -30 15 -35 33 -29 30 9 29 7 13 46 -15 34
-12 52 7 45 5 -1 24 -41 42 -87z m517 63 c22 -20 24 -63 3 -63 -9 0 -15 10
-15 26 0 19 -5 25 -17 22 -26 -5 -27 -34 -4 -64 40 -51 13 -112 -44 -98 -40
10 -56 74 -18 74 9 0 13 -6 10 -13 -8 -20 9 -41 27 -34 22 8 20 37 -4 67 -24
30 -25 63 -4 84 20 21 43 20 66 -1z m-692 -48 c0 -8 -4 -15 -10 -15 -16 0 -12
-15 25 -80 38 -68 42 -80 22 -80 -7 0 -29 29 -48 65 -29 57 -37 65 -56 60 -37
-9 -27 19 15 43 44 26 52 27 52 7z m847 -27 c18 -13 33 -29 33 -35 0 -16 -12
-17 -26 -3 -7 7 -25 -12 -58 -61 -34 -50 -51 -68 -58 -61 -8 8 2 30 32 77 32
50 40 69 32 77 -33 33 -1 37 45 6z m-946 -91 c7 -12 28 -37 47 -55 27 -26 32
-36 23 -45 -10 -9 -17 -6 -35 16 -39 48 -72 27 -35 -24 14 -20 18 -34 11 -41
-6 -6 -30 15 -70 65 l-61 74 36 26 c40 29 63 24 84 -16z m649 -43 c98 -28 191
-84 265 -159 118 -118 175 -255 175 -419 0 -273 -167 -501 -426 -582 -75 -23
-95 -26 -201 -22 -90 3 -133 10 -183 28 -255 91 -424 342 -407 605 21 335 308
589 642 570 44 -3 105 -12 135 -21z m440 11 c0 -8 -22 -49 -49 -92 -39 -60
-51 -74 -57 -60 -3 9 -1 23 5 31 17 21 -11 41 -38 27 -14 -8 -22 -8 -26 0 -9
13 -7 15 73 66 72 45 92 52 92 28z m-1182 -93 c58 -47 68 -67 47 -98 -10 -15
-25 -24 -42 -24 -29 0 -120 65 -129 92 -8 27 5 58 29 67 28 11 43 5 95 -37z
m1306 -56 c18 -35 18 -37 1 -56 -10 -11 -26 -22 -37 -26 -11 -3 -28 -13 -38
-22 -40 -36 -51 -43 -60 -37 -17 11 -11 23 20 42 33 19 34 21 21 42 -8 12 -15
11 -44 -7 -28 -16 -37 -18 -41 -7 -3 9 23 31 72 63 42 27 79 48 82 46 3 -1 14
-18 24 -38z m-1394 -77 c44 -23 77 -45 74 -50 -3 -5 -35 -9 -72 -9 l-67 -1 50
-26 c60 -31 59 -29 51 -42 -9 -13 -176 69 -176 86 0 9 19 13 63 13 l62 1 -48
25 c-26 14 -45 29 -42 34 10 16 20 12 105 -31z m-170 -350 c0 -5 -4 -9 -10 -9
-5 0 -10 -7 -10 -15 0 -24 15 -17 27 13 l11 27 2 -30 2 -30 8 30 8 30 1 -32
c1 -30 -2 -33 -26 -31 -16 1 -33 6 -40 11 -7 5 -18 6 -25 2 -7 -4 -5 0 5 8 18
15 24 32 7 22 -5 -3 -10 -2 -10 3 0 5 11 10 25 10 14 0 25 -4 25 -9z m73 2 c3
8 6 -2 6 -21 0 -23 -2 -30 -8 -21 -7 11 -9 11 -14 0 -3 -8 -6 2 -6 21 0 23 2
30 8 21 7 -11 9 -11 14 0z m45 -23 c2 -16 -3 -28 -12 -31 -13 -5 -16 1 -16 29
0 41 23 43 28 2z m26 0 c-6 -45 -14 -48 -14 -5 0 21 4 37 9 37 4 0 7 -14 5
-32z m41 -3 c0 -16 -6 -30 -12 -32 -9 -3 -13 7 -13 32 0 25 4 35 13 33 6 -3
12 -17 12 -33z m1495 19 c0 -2 -7 -4 -15 -4 -8 0 -15 4 -15 10 0 5 7 7 15 4 8
-4 15 -8 15 -10z m-140 -21 c0 -14 -3 -23 -7 -19 -10 10 -11 46 -1 46 4 0 8
-12 8 -27z m90 3 c0 -14 -5 -28 -12 -32 -7 -5 -9 -2 -5 9 3 9 1 17 -5 19 -6 2
-8 10 -4 16 12 20 26 13 26 -12z m-50 -10 c0 -8 -4 -17 -8 -20 -4 -2 -8 4 -8
15 0 10 4 19 8 19 4 0 8 -6 8 -14z m81 -9 c-10 -9 -11 -8 -5 6 3 10 9 15 12
12 3 -3 0 -11 -7 -18z m-331 -497 c7 -28 23 -66 36 -86 13 -19 24 -39 24 -44
0 -20 -26 -9 -44 19 -11 16 -43 41 -72 57 -40 22 -50 32 -42 41 8 10 16 9 37
-5 50 -36 51 -35 36 9 -8 22 -12 45 -9 50 12 20 23 7 34 -41z m-970 -76 c-24
-46 -48 -84 -52 -84 -15 0 -19 22 -7 36 10 12 9 18 -4 31 -15 15 -18 15 -35 0
-17 -16 -32 -14 -32 4 0 4 35 33 77 64 102 74 114 63 53 -51z m871 -58 c34
-78 38 -96 18 -96 -3 0 -17 25 -29 55 -13 31 -24 54 -26 52 -2 -1 3 -28 10
-60 11 -46 11 -59 1 -67 -10 -8 -22 2 -50 40 -20 27 -38 50 -40 50 -2 0 7 -23
20 -52 13 -28 22 -55 19 -60 -9 -15 -23 -8 -30 14 -4 13 -20 51 -36 86 -16 34
-26 67 -23 72 13 22 36 7 74 -47 46 -63 46 -62 26 22 -13 55 -13 61 2 72 9 7
19 11 21 8 3 -3 22 -43 43 -89z m-703 68 c22 -15 29 -48 14 -71 -11 -18 -29
-1 -28 27 1 16 -5 26 -16 28 -12 2 -26 -14 -47 -56 -26 -52 -28 -62 -15 -72
11 -10 18 -9 33 4 28 25 39 0 12 -27 -20 -20 -23 -21 -49 -7 -17 10 -28 26
-30 42 -5 45 58 148 91 148 7 0 23 -7 35 -16z m152 -98 c0 -23 -3 -70 -6 -104
-5 -47 -10 -59 -21 -55 -9 4 -13 15 -10 29 6 32 -24 42 -42 15 -12 -18 -41
-30 -41 -16 0 3 19 43 42 90 30 59 48 85 60 85 15 0 18 -8 18 -44z m337 27 c3
-7 -8 -13 -24 -15 -22 -2 -28 -8 -28 -28 0 -19 5 -25 22 -25 33 0 39 -13 11
-24 -21 -8 -25 -15 -20 -36 4 -22 9 -26 35 -23 39 4 48 -19 10 -28 -15 -3 -36
-8 -45 -10 -13 -4 -19 7 -28 53 -6 32 -15 75 -20 96 -8 40 -8 41 35 50 30 7
48 3 52 -10z m-169 -19 c19 -13 22 -24 22 -80 0 -80 -19 -104 -81 -104 l-42 0
6 98 c4 53 7 98 7 100 0 9 70 -1 88 -14z"/>
<path d="M817 1592 c-3 -4 4 -18 14 -31 23 -28 45 -16 34 18 -6 20 -39 29 -48
13z"/>
<path d="M1297 1503 c-4 -3 -7 -17 -7 -30 0 -18 5 -23 25 -23 16 0 25 6 25 15
0 8 -7 15 -16 15 -8 0 -12 -4 -9 -10 3 -5 1 -10 -4 -10 -6 0 -11 7 -11 15 0 8
7 15 16 15 8 0 12 5 9 10 -7 12 -19 13 -28 3z"/>
<path d="M1351 1478 c0 -18 3 -27 6 -20 4 10 8 10 18 2 11 -9 13 -6 12 17 -2
17 -9 29 -20 31 -13 3 -17 -3 -16 -30z m29 18 c0 -3 -4 -8 -10 -11 -5 -3 -10
-1 -10 4 0 6 5 11 10 11 6 0 10 -2 10 -4z"/>
<path d="M1402 1480 c0 -19 2 -27 5 -17 2 9 2 25 0 35 -3 9 -5 1 -5 -18z"/>
<path d="M1429 1473 c3 -24 6 -31 9 -18 2 11 8 25 13 31 10 12 2 24 -16 24 -7
0 -9 -13 -6 -37z"/>
<path d="M1242 1473 c2 -19 9 -29 23 -30 11 -2 14 0 7 3 -10 5 -10 9 0 22 11
14 10 15 -6 9 -16 -6 -17 -5 -6 8 10 12 10 15 -4 15 -13 0 -17 -7 -14 -27z"/>
<path d="M1474 1473 c1 -40 7 -41 23 -7 10 21 10 25 -2 20 -7 -2 -16 0 -18 7
-2 7 -4 -3 -3 -20z"/>
<path d="M1200 1480 c-10 -6 -11 -10 -2 -10 6 0 12 -6 12 -14 0 -8 4 -17 8
-20 5 -3 6 8 4 25 -2 16 -5 29 -6 29 0 0 -8 -5 -16 -10z"/>
<path d="M1170 1462 c0 -6 -7 -9 -15 -6 -19 8 -19 -4 1 -36 8 -14 13 -17 10
-7 -5 15 -2 17 15 12 19 -6 20 -5 9 17 -16 30 -20 34 -20 20z"/>
<path d="M1120 1444 c0 -5 7 -19 15 -30 8 -10 15 -14 15 -8 0 5 -7 19 -15 30
-8 10 -15 14 -15 8z"/>
<path d="M1620 1420 c-12 -23 -6 -40 15 -40 7 0 15 -7 19 -15 3 -8 11 -15 17
-15 8 0 7 5 -2 16 -12 15 -11 16 11 11 14 -4 19 -4 13 -1 -20 9 -15 24 5 18
15 -5 15 -4 -1 6 -15 10 -21 8 -32 -7 -13 -17 -14 -16 -12 11 2 35 -17 45 -33
16z m24 -15 c-6 -16 -24 -21 -24 -7 0 11 11 22 21 22 5 0 6 -7 3 -15z"/>
<path d="M1325 1392 c-16 -4 -11 -7 20 -17 l40 -13 -36 -1 c-60 -2 -136 -29
-158 -58 -12 -14 -26 -44 -32 -67 -18 -68 -34 -86 -78 -86 -42 0 -58 13 -70
57 l-8 28 -12 -28 c-25 -64 -5 -125 49 -146 l25 -10 -28 0 c-17 -1 -38 9 -52
23 l-24 24 -7 -34 c-9 -48 12 -91 55 -114 36 -19 36 -19 9 -20 -62 -1 -10 -49
64 -60 29 -4 47 -8 40 -9 -21 -2 -3 -21 19 -21 29 0 14 -17 -37 -43 l-44 -22
58 -34 c31 -19 124 -79 206 -133 l149 -99 26 22 c14 13 56 54 93 93 l67 71
-32 15 c-17 8 -34 15 -36 17 -1 1 8 17 22 35 40 54 55 91 47 114 -5 12 -4 39
1 60 25 108 12 138 -100 229 l-61 50 21 18 c13 10 30 15 40 12 13 -4 19 -1 19
9 0 18 -30 36 -59 36 -15 0 -21 6 -21 21 0 66 -84 105 -175 81z m-55 -102 c0
-5 -5 -10 -11 -10 -5 0 -7 5 -4 10 3 6 8 10 11 10 2 0 4 -4 4 -10z m102 -69
c-9 -5 1 -10 31 -13 40 -5 107 -41 107 -58 0 -10 -156 -80 -178 -80 -13 0 -22
11 -29 38 l-10 37 -2 -42 c0 -24 -5 -43 -11 -43 -15 0 -12 51 5 84 9 16 13 31
11 34 -8 7 -56 -50 -62 -73 -4 -16 -13 -22 -30 -22 l-24 0 19 31 c10 17 39 45
64 61 25 17 46 36 46 43 1 7 15 12 39 12 24 0 32 -3 24 -9z m-196 -39 c-15
-15 -15 -15 -4 10 7 15 15 23 17 17 2 -6 -4 -18 -13 -27z m392 -107 c13 -50
13 -227 1 -240 -19 -18 -232 65 -276 108 -7 8 -9 29 -6 60 5 40 9 47 28 47 12
0 64 18 116 39 52 22 101 39 109 38 9 -1 20 -22 28 -52z m82 -56 c0 -27 -4
-49 -10 -49 -5 0 -10 20 -10 44 0 24 -3 53 -7 63 -6 16 -5 16 10 4 12 -9 17
-29 17 -62z m-432 39 c25 -25 8 -78 -27 -78 -12 0 -11 3 2 18 20 22 22 43 5
60 -7 7 -8 12 -2 12 6 0 15 -5 22 -12z m-25 -39 c-9 -9 -12 -7 -10 9 1 14 5
18 11 12 7 -7 6 -14 -1 -21z m77 10 c0 -11 -5 -30 -11 -42 -10 -18 -7 -25 27
-54 53 -45 169 -101 237 -114 31 -7 57 -16 57 -21 0 -21 -31 -67 -69 -101 -40
-36 -42 -37 -75 -23 -55 23 -144 83 -159 108 -8 13 -17 44 -21 71 -3 26 -13
61 -22 78 -15 30 -13 66 4 55 4 -2 6 11 4 30 -3 26 -1 34 12 34 10 0 16 -8 16
-21z m341 -122 c-10 -9 -11 -8 -5 6 3 10 9 15 12 12 3 -3 0 -11 -7 -18z m-380
-65 c-12 -27 -44 -67 -72 -89 -12 -10 -20 -9 -38 3 -22 16 -22 16 31 53 42 29
55 45 63 75 9 38 9 38 18 12 6 -18 5 -37 -2 -54z m409 70 c0 -5 -6 -16 -13
-27 -11 -14 -16 -15 -22 -5 -5 8 -4 11 3 6 6 -3 13 3 17 14 6 20 15 27 15 12z
m1 -75 c-8 -8 -11 -7 -11 4 0 20 13 34 18 19 3 -7 -1 -17 -7 -23z m-397 -106
c-13 -33 -19 -39 -30 -30 -12 9 -10 16 6 39 11 16 20 34 20 41 0 9 3 10 11 2
7 -7 5 -23 -7 -52z m88 -31 c29 -22 72 -48 95 -57 38 -16 43 -22 43 -50 0 -17
-4 -34 -9 -37 -5 -4 -38 12 -73 35 -35 23 -78 51 -96 63 -24 15 -31 26 -27 41
2 11 5 26 5 33 0 18 4 16 62 -28z m222 -79 c3 -5 -2 -15 -12 -22 -15 -13 -16
-12 -4 3 10 13 10 17 0 21 -9 4 -9 6 -1 6 6 1 14 -3 17 -8z"/>
<path d="M1400 961 c0 -6 4 -13 10 -16 15 -9 109 -33 113 -28 2 2 2 15 -1 28
-4 23 -8 25 -63 25 -33 0 -59 -4 -59 -9z"/>
<path d="M1316 829 c-8 -41 -8 -49 2 -49 11 0 32 67 24 74 -12 12 -20 5 -26
-25z"/>
<path d="M1354 795 c-6 -32 -1 -55 10 -44 11 11 17 79 8 79 -6 0 -14 -16 -18
-35z"/>
<path d="M1406 802 c-11 -18 -17 -80 -8 -86 8 -4 42 59 42 78 0 8 -30 15 -34
8z"/>
<path d="M1452 747 c-24 -68 -4 -80 28 -17 24 48 25 50 2 50 -11 0 -22 -12
-30 -33z"/>
<path d="M1713 1373 c4 -3 0 -15 -10 -25 -9 -10 -12 -18 -7 -18 5 0 17 9 26
19 16 19 14 31 -5 31 -6 0 -7 -3 -4 -7z"/>
<path d="M1011 1354 c12 -15 11 -16 -11 -9 -20 6 -23 5 -13 -5 7 -7 24 -14 39
-16 l26 -3 -23 25 c-25 27 -39 33 -18 8z"/>
<path d="M1733 1331 l-22 -18 25 -22 c13 -11 24 -18 24 -14 0 3 12 -16 26 -43
14 -27 32 -54 39 -60 11 -8 12 -13 3 -22 -18 -18 14 -15 38 3 19 15 19 15 -1
8 -18 -6 -19 -5 -5 12 14 17 13 18 -15 11 l-30 -7 25 21 c22 18 22 20 3 11
-34 -17 -40 -12 -13 10 25 21 25 21 2 16 -19 -5 -21 -3 -11 9 16 19 4 30 -16
14 -9 -7 -18 -10 -22 -6 -4 3 2 13 13 20 15 12 16 17 7 27 -10 10 -16 9 -28
-1 -13 -11 -19 -10 -33 5 -16 17 -16 17 1 12 12 -5 16 -3 11 5 -5 7 -2 9 9 5
11 -4 14 -2 10 9 -7 18 -13 17 -40 -5z m62 -41 c3 -5 1 -10 -4 -10 -6 0 -11 5
-11 10 0 6 2 10 4 10 3 0 8 -4 11 -10z"/>
<path d="M1520 1326 c0 -9 8 -16 19 -16 27 0 61 -47 61 -83 0 -24 -3 -28 -12
-19 -7 7 -22 12 -35 12 -19 0 -13 -9 40 -57 98 -90 96 -82 86 -264 -4 -62 -9
-84 -32 -118 -16 -24 -27 -44 -25 -45 28 -23 43 -22 65 4 115 138 99 372 -35
508 -57 57 -132 102 -132 78z"/>
<path d="M950 1304 c0 -9 -11 -25 -25 -36 -27 -21 -34 -41 -11 -32 8 3 17 1
21 -5 3 -6 12 -11 18 -11 7 1 2 9 -11 20 -23 19 -17 35 8 19 25 -15 35 -10 14
7 -19 15 -18 15 3 9 24 -6 70 29 53 40 -6 4 -10 1 -10 -6 0 -10 -3 -10 -12 -1
-17 17 -48 15 -48 -4z m40 -10 c0 -9 -5 -14 -12 -12 -18 6 -21 28 -4 28 9 0
16 -7 16 -16z"/>
<path d="M1134 1291 c-42 -30 -94 -86 -94 -101 0 -18 39 -31 60 -20 23 13 35
33 44 79 3 19 14 43 23 53 23 26 12 22 -33 -11z"/>
<path d="M884 1208 c-8 -12 24 -40 41 -35 14 5 19 37 6 37 -6 0 -11 -7 -11
-16 0 -8 -5 -12 -11 -9 -6 4 -8 13 -5 21 6 17 -10 19 -20 2z"/>
<path d="M863 1163 c-4 -9 -2 -18 3 -20 41 -14 41 -48 1 -37 -19 4 -23 1 -25
-24 -2 -22 3 -31 18 -35 20 -5 29 -37 10 -37 -5 0 -10 6 -10 13 0 8 -3 8 -9
-2 -7 -11 -10 -10 -14 5 -4 16 -5 16 -6 -3 -1 -19 4 -23 29 -23 26 0 30 4 30
26 0 30 -25 61 -33 41 -3 -6 -6 -4 -6 7 -1 14 4 17 24 14 29 -6 30 -5 39 42 5
26 4 31 -3 20 -9 -13 -11 -12 -12 5 0 11 -3 14 -6 8 -2 -7 -9 -13 -14 -13 -4
0 -6 7 -3 15 4 8 3 15 0 15 -4 0 -10 -8 -13 -17z"/>
<path d="M1839 1121 c7 -5 10 -14 7 -20 -10 -15 5 -13 27 3 25 19 21 26 -15
26 -23 0 -29 -3 -19 -9z"/>
<path d="M1890 1093 c0 -7 -10 -14 -22 -14 -18 -1 -17 -3 7 -8 37 -9 40 -7 26
16 -6 10 -11 12 -11 6z"/>
<path d="M1863 1043 c9 -2 25 -2 35 0 9 3 1 5 -18 5 -19 0 -27 -2 -17 -5z"/>
<path d="M1864 1015 c-10 -24 12 -42 34 -29 24 16 21 38 -6 42 -13 2 -25 -3
-28 -13z m34 -6 c-2 -6 -8 -10 -13 -10 -5 0 -11 4 -13 10 -2 6 4 11 13 11 9 0
15 -5 13 -11z"/>
<path d="M830 969 c0 -15 7 -19 33 -18 17 0 26 3 19 6 -9 3 -10 9 -2 17 7 10
3 13 -20 14 -23 0 -30 -4 -30 -19z"/>
<path d="M1870 960 c10 -6 11 -10 3 -10 -7 0 -13 -4 -13 -10 0 -5 12 -10 28
-9 15 0 21 3 14 6 -10 4 -9 8 5 19 16 12 15 13 -17 14 -26 0 -31 -3 -20 -10z"/>
<path d="M986 867 c3 -12 12 -37 20 -54 l13 -32 38 15 c58 24 61 32 17 49 -21
8 -52 22 -67 30 -27 14 -28 14 -21 -8z"/>
<path d="M868 843 c-19 -5 -25 -23 -8 -23 5 0 6 -8 3 -17 -5 -13 -2 -15 11
-10 10 4 21 7 25 7 4 0 8 7 8 15 0 8 -5 15 -11 15 -6 0 -4 5 4 10 13 9 13 10
0 9 -8 -1 -23 -3 -32 -6z"/>
<path d="M1835 820 c-4 -6 -4 -14 -1 -17 3 -4 6 -1 6 5 0 7 5 12 11 12 6 0 8
-7 5 -16 -5 -14 -4 -15 8 -5 11 9 15 9 20 -1 3 -7 5 -4 3 7 -2 22 -41 33 -52
15z"/>
<path d="M880 780 c-12 -7 -12 -12 -1 -34 11 -20 18 -23 32 -16 24 13 29 13
29 -5 0 -7 -8 -18 -17 -24 -10 -5 -15 -12 -12 -15 3 -3 15 1 27 10 30 21 13
57 -23 48 -20 -5 -23 -3 -18 15 3 12 10 21 15 21 5 0 6 -4 3 -10 -3 -5 -1 -10
4 -10 6 0 11 7 11 15 0 17 -27 20 -50 5z"/>
<path d="M1830 781 c13 -9 13 -11 -2 -11 -25 0 -22 -17 3 -23 12 -3 18 -10 14
-16 -4 -8 -12 -8 -26 -1 -24 13 -25 2 -2 -16 24 -17 10 -28 -18 -14 -19 11
-21 10 -15 -5 5 -13 2 -16 -9 -11 -22 8 -9 -11 15 -24 16 -9 18 -8 13 7 -5 12
-2 15 9 10 12 -4 21 4 33 29 9 19 13 39 10 44 -3 6 2 10 11 10 24 0 7 16 -26
25 -19 5 -21 4 -10 -4z"/>
<path d="M1048 742 c56 -78 150 -137 252 -156 35 -6 35 -6 -17 29 -41 28 -128
82 -247 153 -6 3 0 -8 12 -26z"/>
<path d="M947 682 c-25 -27 -21 -34 16 -27 29 5 30 4 15 -8 -20 -16 -25 -32
-6 -21 8 5 9 2 5 -9 -9 -24 6 -21 29 5 10 12 13 18 7 14 -8 -4 -13 -1 -13 8 0
8 -6 19 -14 23 -7 4 -15 14 -17 21 -3 10 -9 9 -22 -6z"/>
<path d="M1743 652 c-3 -11 -14 -23 -25 -25 -23 -6 -19 -33 5 -31 9 1 13 -4
10 -13 -5 -11 -9 -11 -25 4 -17 16 -21 16 -31 3 -7 -8 -24 -21 -39 -27 -30
-13 -38 -43 -12 -43 9 0 12 -5 8 -11 -4 -7 -1 -10 6 -7 23 7 23 28 1 28 -12 0
-21 5 -21 11 0 5 4 7 10 4 5 -3 19 -1 31 6 13 6 19 7 15 1 -3 -6 -1 -14 5 -17
17 -11 20 0 9 31 -11 27 -11 28 9 10 16 -15 22 -15 40 -4 12 7 21 18 21 25 0
7 5 13 12 13 6 0 3 9 -7 20 -10 11 -13 20 -7 20 6 0 14 -4 17 -10 3 -5 11 -10
16 -10 15 0 1 18 -22 31 -17 9 -21 7 -26 -9z m12 -32 c3 -6 -4 -10 -17 -10
-18 0 -20 2 -8 10 19 12 18 12 25 0z"/>
<path d="M1010 605 c-18 -21 -5 -48 20 -40 15 5 18 3 14 -9 -10 -25 2 -19 22
12 15 23 15 25 1 13 -15 -12 -17 -11 -17 13 0 29 -20 35 -40 11z m30 -13 c0
-13 -12 -22 -22 -16 -10 6 -1 24 13 24 5 0 9 -4 9 -8z"/>
<path d="M1075 560 c-3 -5 -3 -15 1 -22 4 -7 3 -8 -4 -4 -12 7 -17 -6 -6 -17
14 -13 34 6 29 27 -5 17 -4 18 4 6 9 -13 11 -13 11 3 0 18 -25 24 -35 7z"/>
<path d="M1110 530 c-17 -32 5 -53 26 -25 8 10 13 24 11 29 -6 19 -26 17 -37
-4z"/>
<path d="M1590 533 c0 -7 -3 -12 -7 -12 -27 4 -32 -2 -21 -26 11 -25 28 -34
28 -15 0 5 7 7 15 4 8 -4 15 -2 15 2 -1 15 -29 60 -30 47z"/>
<path d="M1168 523 c19 -7 14 -23 -5 -16 -16 6 -16 5 -4 -10 12 -15 12 -17 -4
-11 -13 5 -16 4 -11 -4 10 -17 33 -15 40 4 11 28 6 44 -11 43 -11 0 -13 -3 -5
-6z"/>
<path d="M1216 495 c-11 -8 -16 -15 -10 -15 5 0 3 -4 -4 -9 -11 -7 -11 -9 1
-14 11 -4 19 4 26 24 5 16 9 29 8 29 -1 0 -11 -7 -21 -15z"/>
<path d="M1247 493 c-11 -10 -8 -41 5 -49 14 -9 38 23 31 42 -5 15 -25 19 -36
7z m19 -40 c-11 -11 -19 6 -11 24 8 17 8 17 12 0 3 -10 2 -21 -1 -24z"/>
<path d="M1297 470 c-3 -14 -2 -29 3 -34 16 -16 40 2 40 30 0 22 -3 24 -14 15
-11 -9 -15 -9 -18 1 -3 7 -7 1 -11 -12z"/>
<path d="M1368 471 c-24 -23 -23 -41 2 -41 16 0 20 7 20 30 0 35 0 34 -22 11z"/>
<path d="M1904 1516 c-14 -11 -16 -18 -8 -26 8 -7 14 -3 22 15 13 29 12 30
-14 11z"/>
<path d="M709 1480 c-19 -13 -4 -36 51 -78 40 -31 44 -32 59 -17 15 15 13 19
-24 51 -54 47 -68 54 -86 44z"/>
<path d="M2047 1401 c-24 -15 -26 -20 -13 -30 11 -9 20 -10 35 -1 23 12 25 18
13 37 -6 9 -15 8 -35 -6z"/>
<path d="M642 970 c0 -14 2 -19 5 -12 2 6 2 18 0 25 -3 6 -5 1 -5 -13z"/>
<path d="M712 965 c0 -16 2 -22 5 -12 2 9 2 23 0 30 -3 6 -5 -1 -5 -18z"/>
<path d="M871 409 c-15 -12 -21 -23 -15 -29 6 -6 16 1 27 20 21 35 20 36 -12
9z"/>
<path d="M1172 245 c-15 -33 -15 -35 3 -35 10 0 15 10 15 30 0 37 -3 37 -18 5z"/>
<path d="M1326 234 c-11 -87 -9 -96 22 -92 26 3 27 5 27 68 0 58 -2 65 -21 68
-18 3 -22 -4 -28 -44z"/>
</g>
</svg>
